# 3ds Max Wavefront OBJ Exporter v0.97b - (c)2007 guruware
# File Created: 25.11.2016 22:04:25

mtllib plane.mtl

#
# object The_City
#

v  939.6418 0.0000 -145.7016
v  939.6418 39.0000 -145.7016
v  -1337.7131 39.0000 -145.7016
v  -1337.7131 0.0000 -145.7016
v  -1337.7131 0.0000 -2269.9668
v  -1337.7131 39.0000 -2269.9668
v  939.6418 39.0000 -2269.9668
v  939.6418 0.0000 -2269.9668
# 8 vertices

vn 0.0000 0.0000 0.9983
vn 0.0000 0.0000 -0.9983
vn -0.9983 0.0000 -0.0000
vn 0.9983 0.0000 -0.0000
vn 0.0000 0.9983 -0.0000
vn 0.0000 -0.9983 -0.0000
# 6 vertex normals

vt 0.3300 0.0000 0.0000
vt 0.3300 0.5000 0.0000
vt 0.0000 0.5000 0.0000
vt 0.0000 0.0000 0.0000
vt 0.9900 0.0000 0.0000
vt 0.9900 0.5000 0.0000
vt 0.6600 0.5000 0.0000
vt 0.6600 0.0000 0.0000
vt 0.9900 1.0000 0.0000
vt 0.6600 1.0000 0.0000
vt 0.3300 1.0000 0.0000
vt 0.0000 1.0000 0.0000
# 12 texture coords

g The_City
usemtl _The_CityDefault
s 1
f 1/1/1 2/2/1 3/3/1 4/4/1 
f 5/5/2 6/6/2 7/7/2 8/8/2 
f 4/6/3 3/9/3 6/10/3 5/7/3 
f 8/8/4 7/7/4 2/2/4 1/1/4 
f 2/2/5 7/11/5 6/12/5 3/3/5 
f 8/7/6 1/10/6 4/11/6 5/2/6 
# 6 polygons

